{"title":"The Sacketts  1-2  (Western 1979)  Excellent quality in a thimbl","uid":9264620,"size":912353848,"categoryP":"video","categoryS":"movies","magnet":"?xt=urn:btih:2c3553afb65388880b94ed46b206181f82d83c16&amp;dn=The+Sacketts++1-2++%28Western+1979%29++Excellent+quality+in+a+thimbl&amp;tr=udp%3A%2F%2Ftracker.openbittorrent.com%3A80&amp;tr=udp%3A%2F%2Fopen.demonii.com%3A1337&amp;tr=udp%3A%2F%2Ftracker.coppersurfer.tk%3A6969&amp;tr=udp%3A%2F%2Fexodus.desync.com%3A6969","seeders":5,"leechers":3,"uploader":"BurtonW","files":9,"time":1385679837,"description":" &lt;a href=&quot;http://www.imdb.com/title/tt0079840/?ref_=nv_sr_1&quot; rel=&quot;nofollow&quot; target=&quot;_NEW&quot;&gt;http://www.imdb.com/title/tt0079840/?ref_=nv_sr_1&lt;/a&gt;\n\n\nNo subtitles!\n\n\nStoryline:\n\nTwo part TV adaptation of Louis L'Amour's third novel in the Sackett series. The story follows the three Sackett brothers out west from their Tennessee home. Along the way the oldest, Tell, prospects for gold, while the two younger Orin and Tye herd cattle and later help bring order to a racially divided Santa Fe.\n\n\nTechnical info:\n\n\nGeneral:            The Sacketts - Part 1\n\n\nComplete name                  : The Sacketts - Part 1  (Western 1979)  Sam Elliott, Tom Selleck &amp; Jeff Osterhage.mp4\nFormat                         : MPEG-4\nFormat profile                 : Base Media / Version 2\nCodec ID                       : mp42\nFile size                      : 441 MiB\nDuration                       : 1h 37mn\nOverall bit rate mode          : Variable\nOverall bit rate               : 629 Kbps\nEncoded date                   : UTC 2013-11-27 22:31:45\nTagged date                    : UTC 2013-11-28 03:43:56\n\n\nVideo:\n\nID                             : 1\nFormat                         : AVC\nFormat/Info                    : Advanced Video Codec\nFormat profile                 : &lt;a class=&quot;__cf_email__&quot; href=&quot;/cdn-cgi/l/email-protection&quot; data-cfemail=&quot;99d4f8f0f7d9d5adb7a9&quot;&gt;[email&amp;#160;protected]&lt;/a&gt;&lt;script cf-hash='f9e31' type=&quot;text/javascript&quot;&gt;\n/* &lt;![CDATA[ */!function(){try{var t=&quot;currentScript&quot;in document?document.currentScript:function(){for(var t=document.getElementsByTagName(&quot;script&quot;),e=t.length;e--;)if(t[e].getAttribute(&quot;cf-hash&quot;))return t[e]}();if(t&amp;&amp;t.previousSibling){var e,r,n,i,c=t.previousSibling,a=c.getAttribute(&quot;data-cfemail&quot;);if(a){for(e=&quot;&quot;,r=parseInt(a.substr(0,2),16),n=2;a.length-n;n+=2)i=parseInt(a.substr(n,2),16)^r,e+=String.fromCharCode(i);e=document.createTextNode(e),c.parentNode.replaceChild(e,c)}}}catch(u){}}();/* ]]&gt; */&lt;/script&gt;\nFormat settings, CABAC         : Yes\nFormat settings, ReFrames      : 16 frames\nCodec ID                       : avc1\nCodec ID/Info                  : Advanced Video Coding\nDuration                       : 1h 37mn\nBit rate mode                  : Variable\nBit rate                       : 464 Kbps\nWidth                          : 720 pixels\nHeight                         : 480 pixels\nDisplay aspect ratio           : 3:2\nFrame rate mode                : Variable\nFrame rate                     : 23.976 fps\nMinimum frame rate             : 8.563 fps\nMaximum frame rate             : 29.970 fps\nStandard                       : NTSC\nColor space                    : YUV\nChroma subsampling             : 4:2:0\nBit depth                      : 8 bits\nScan type                      : Progressive\nBits/(Pixel*Frame)             : 0.056\nStream size                    : 325 MiB (74%)\nWriting library                : x264 core 130 r2273 b3065e6\nEncoding settings              : Deleted\nEncoded date                   : UTC 2013-11-27 22:31:45\nTagged date                    : UTC 2013-11-28 03:43:56\nColor primaries                : BT.601 NTSC\nTransfer characteristics       : BT.709\nMatrix coefficients            : BT.601\n\nAudio:\n\nID                             : 2\nFormat                         : AAC\nFormat/Info                    : Advanced Audio Codec\nFormat profile                 : LC\nCodec ID                       : 40\nDuration                       : 1h 37mn\nBit rate mode                  : Variable\nBit rate                       : 160 Kbps\nMaximum bit rate               : 194 Kbps\nChannel(s)                     : 1 channel\nChannel positions              : Front: C\nSampling rate                  : 48.0 KHz\nCompression mode               : Lossy\nDelay relative to video        : 167ms\nStream size                    : 112 MiB (25%)\nLanguage                       : English\nEncoded date                   : UTC 2013-11-27 22:31:45\nTagged date                    : UTC 2013-11-28 03:43:55\n\n*********************************************************************************\n\nGeneral:\t\tThe Sacketts - Part 2\n\n\nComplete name                  : The Sacketts - Part 2  (Western 1979)  Sam Elliott, Tom Selleck &amp; Jeff Osterhage.mp4\nFormat                         : MPEG-4\nFormat profile                 : Base Media / Version 2\nCodec ID                       : mp42\nFile size                      : 424 MiB\nDuration                       : 1h 34mn\nOverall bit rate mode          : Variable\nOverall bit rate               : 627 Kbps\nEncoded date                   : UTC 2013-11-28 05:51:33\nTagged date                    : UTC 2013-11-28 10:35:24\n\nVideo:\n\nID                             : 1\nFormat                         : AVC\nFormat/Info                    : Advanced Video Codec\nFormat profile                 : &lt;a class=&quot;__cf_email__&quot; href=&quot;/cdn-cgi/l/email-protection&quot; data-cfemail=&quot;84c9e5edeac4c8b0aab4&quot;&gt;[email&amp;#160;protected]&lt;/a&gt;&lt;script cf-hash='f9e31' type=&quot;text/javascript&quot;&gt;\n/* &lt;![CDATA[ */!function(){try{var t=&quot;currentScript&quot;in document?document.currentScript:function(){for(var t=document.getElementsByTagName(&quot;script&quot;),e=t.length;e--;)if(t[e].getAttribute(&quot;cf-hash&quot;))return t[e]}();if(t&amp;&amp;t.previousSibling){var e,r,n,i,c=t.previousSibling,a=c.getAttribute(&quot;data-cfemail&quot;);if(a){for(e=&quot;&quot;,r=parseInt(a.substr(0,2),16),n=2;a.length-n;n+=2)i=parseInt(a.substr(n,2),16)^r,e+=String.fromCharCode(i);e=document.createTextNode(e),c.parentNode.replaceChild(e,c)}}}catch(u){}}();/* ]]&gt; */&lt;/script&gt;\nFormat settings, CABAC         : Yes\nFormat settings, ReFrames      : 16 frames\nCodec ID                       : avc1\nCodec ID/Info                  : Advanced Video Coding\nDuration                       : 1h 34mn\nBit rate mode                  : Variable\nBit rate                       : 464 Kbps\nWidth                          : 720 pixels\nHeight                         : 480 pixels\nDisplay aspect ratio           : 3:2\nFrame rate mode                : Variable\nFrame rate                     : 23.976 fps\nMinimum frame rate             : 8.563 fps\nMaximum frame rate             : 29.970 fps\nStandard                       : NTSC\nColor space                    : YUV\nChroma subsampling             : 4:2:0\nBit depth                      : 8 bits\nScan type                      : Progressive\nBits/(Pixel*Frame)             : 0.056\nStream size                    : 314 MiB (74%)\nWriting library                : x264 core 130 r2273 b3065e6\nEncoding settings              : Deleted\nEncoded date                   : UTC 2013-11-28 05:51:33\nTagged date                    : UTC 2013-11-28 10:35:24\nColor primaries                : BT.601 NTSC\nTransfer characteristics       : BT.709\nMatrix coefficients            : BT.601\n\nAudio:\n\nID                             : 2\nFormat                         : AAC\nFormat/Info                    : Advanced Audio Codec\nFormat profile                 : LC\nCodec ID                       : 40\nDuration                       : 1h 34mn\nBit rate mode                  : Variable\nBit rate                       : 158 Kbps\nMaximum bit rate               : 199 Kbps\nChannel(s)                     : 1 channel\nChannel positions              : Front: C\nSampling rate                  : 48.0 KHz\nCompression mode               : Lossy\nDelay relative to video        : 167ms\nStream size                    : 107 MiB (25%)\nLanguage                       : English\nEncoded date                   : UTC 2013-11-28 05:51:33\nTagged date                    : UTC 2013-11-28 10:35:23\n\n\n\n","torrent":{"xt":"urn:btih:2c3553afb65388880b94ed46b206181f82d83c16","amp;dn":"The+Sacketts++1-2++%28Western+1979%29++Excellent+quality+in+a+thimbl","amp;tr":["udp%3A%2F%2Ftracker.openbittorrent.com%3A80","udp%3A%2F%2Fopen.demonii.com%3A1337","udp%3A%2F%2Ftracker.coppersurfer.tk%3A6969","udp%3A%2F%2Fexodus.desync.com%3A6969"],"infoHash":"2c3553afb65388880b94ed46b206181f82d83c16","infoHashBuffer":{"type":"Buffer","data":[44,53,83,175,182,83,136,136,11,148,237,70,178,6,24,31,130,216,60,22]},"announce":[],"urlList":[]}}